<svg xmlns="http://www.w3.org/2000/svg" width="507" height="507" viewBox="0 0 507 507">
  <g id="Grupo_1" data-name="Grupo 1" transform="translate(-961 -658)">
    <circle id="Elipse_1" data-name="Elipse 1" cx="253.5" cy="253.5" r="253.5" transform="translate(961 658)" fill="#fff"/>
    <path id="graph" d="M55.725,138.812H28.362A27.443,27.443,0,0,0,1,166.175v82.087a27.443,27.443,0,0,0,27.362,27.362H55.725a27.443,27.443,0,0,0,27.362-27.362V166.175A27.443,27.443,0,0,0,55.725,138.812ZM165.175,2H137.812A27.443,27.443,0,0,0,110.45,29.362v218.9a27.443,27.443,0,0,0,27.362,27.362h27.362a27.443,27.443,0,0,0,27.362-27.362V29.362A27.443,27.443,0,0,0,165.175,2Zm109.45,82.087H247.262A27.443,27.443,0,0,0,219.9,111.45V248.262a27.443,27.443,0,0,0,27.362,27.362h27.362a27.443,27.443,0,0,0,27.362-27.362V111.45A27.443,27.443,0,0,0,274.625,84.087Z" transform="translate(1063.006 772.688)" fill="#004369"/>
  </g>
</svg>